<svg width="110" height="46" viewBox="0 0 110 46" fill="none" xmlns="http://www.w3.org/2000/svg">
<g id="logo">
<g id="Vector">
<path d="M8.50716 13.7256C3.81062 13.7256 0 17.5242 0 22.2114C0 26.8987 3.81062 30.6973 8.50716 30.6973C13.2037 30.6973 17.0254 26.9006 17.0254 22.2114C17.0254 17.5223 13.213 13.7256 8.50716 13.7256ZM8.28846 16.6152C8.89452 16.6152 9.37826 17.1066 9.37826 17.7052C9.37826 18.3038 8.89452 18.7953 8.28846 18.7953C7.68239 18.7953 7.1968 18.3094 7.1968 17.7052C7.1968 17.1011 7.68425 16.6152 8.28846 16.6152ZM3.24532 20.1606C3.53446 20.1606 3.77355 20.4008 3.77355 20.6946C3.77355 20.9883 3.53446 21.2267 3.24532 21.2267C2.95619 21.2267 2.70413 20.9865 2.70413 20.6946C2.70413 20.4027 2.94507 20.1606 3.24532 20.1606ZM4.43521 24.8128C4.43521 25.029 4.25173 25.2082 4.03673 25.2082H2.19259C1.97759 25.2082 1.79781 25.029 1.79781 24.8128V20.4747C1.79781 20.2937 1.94794 20.1495 2.1203 20.1495C2.29267 20.1495 2.44465 20.2937 2.44465 20.4747V21.502H4.03858C4.25358 21.502 4.43707 21.6812 4.43707 21.901V24.8128H4.43521ZM13.6912 20.2327C14.0655 20.2327 14.3751 20.5431 14.3751 20.9218C14.3751 21.3006 14.0674 21.6091 13.6912 21.6091C13.3149 21.6091 12.9924 21.2987 12.9924 20.9218C12.9924 20.5449 13.3038 20.2327 13.6912 20.2327ZM15.2276 26.2373C15.2276 26.5181 14.9922 26.7491 14.7142 26.7491H12.3326C12.0546 26.7491 11.8211 26.5181 11.8211 26.2373V20.6373C11.8211 20.4045 12.0138 20.2179 12.2362 20.2179C12.4586 20.2179 12.6551 20.4045 12.6551 20.6373V21.9639H14.7124C14.9904 21.9639 15.2258 22.1948 15.2258 22.4793V26.2391L15.2276 26.2373ZM10.7238 26.1227C10.7238 26.568 10.355 26.9283 9.9139 26.9283H6.15703C5.71036 26.9283 5.34153 26.568 5.34153 26.1227V17.2563C5.34153 16.8904 5.64179 16.5893 5.99949 16.5893C6.3572 16.5893 6.65931 16.8923 6.65931 17.2563V19.3643H9.91205C10.355 19.3643 10.722 19.7209 10.722 20.1699V26.1227H10.7238Z" fill="#482B75"/>
<path d="M19.5442 18.5052H20.9565V19.8429H20.9917C21.6627 18.8212 22.6876 18.2927 23.9424 18.2927C25.0563 18.2927 26.0794 18.7325 26.45 19.8429C27.0691 18.8747 28.1459 18.2927 29.3117 18.2927C31.1318 18.2927 32.3494 19.0502 32.3494 20.9348V27.6082H30.8482V21.6387C30.8482 20.5117 30.5479 19.6138 29.0819 19.6138C27.6158 19.6138 26.6965 20.5301 26.6965 21.938V27.6082H25.1953V21.6387C25.1953 20.4581 24.8246 19.6138 23.4827 19.6138C21.6997 19.6138 21.0455 21.2507 21.0455 21.938V27.6082H19.5442V18.5052Z" fill="#482B75"/>
<path d="M38.1265 18.2927C41.0234 18.2927 42.5599 20.3879 42.5599 23.065C42.5599 25.7421 41.0234 27.8188 38.1265 27.8188C35.2297 27.8188 33.6932 25.7237 33.6932 23.065C33.6932 20.4064 35.2297 18.2927 38.1265 18.2927ZM38.1265 26.4978C39.6982 26.4978 40.9697 25.2655 40.9697 23.0632C40.9697 20.8609 39.6982 19.6119 38.1265 19.6119C36.5548 19.6119 35.2834 20.8442 35.2834 23.0632C35.2834 25.2821 36.5548 26.4978 38.1265 26.4978ZM38.5676 14.7343H40.4933L38.1784 17.2526H37.0479L38.5676 14.7343Z" fill="#482B75"/>
<path d="M48.0201 27.6082H46.4113L43.0214 18.5052H44.6987L47.2602 26.095H47.2954L49.7864 18.5052H51.358L48.0201 27.6082Z" fill="#482B75"/>
<path d="M53.8842 16.8664H52.383V15.0355H53.8842V16.8664ZM52.383 18.5034H53.8842V27.6063H52.383V18.5034Z" fill="#482B75"/>
<path d="M57.3816 15.0355H55.8804V27.6082H57.3816V15.0355Z" fill="#482B75"/>
<path d="M110 22.7491C110 10.1838 99.784 0 87.1789 0C74.5739 0 64.3579 10.1838 64.3579 22.7491C64.3579 35.3144 74.5739 45.5 87.1789 45.5C99.784 45.5 110 35.3162 110 22.7491Z" fill="#F7E036"/>
<path d="M76.861 21.3911C76.6923 20.7371 76.4217 20.1514 76.0436 19.6378C75.6637 19.1205 75.1762 18.7085 74.5869 18.4036C73.9901 18.0969 73.295 17.9436 72.5129 17.9436C71.8104 17.9436 71.1655 18.0692 70.5816 18.3205C70.0015 18.5699 69.4974 18.9154 69.0767 19.3533C68.6559 19.7911 68.3316 20.3103 68.1055 20.9071C67.8775 21.5038 67.7663 22.1468 67.7663 22.8322C67.7663 23.5177 67.8738 24.1939 68.0962 24.7906C68.3168 25.3855 68.6318 25.9047 69.0415 26.337C69.4529 26.7712 69.957 27.1075 70.5446 27.3384C71.1321 27.5712 71.7919 27.6895 72.5129 27.6895C73.5527 27.6895 74.4571 27.4548 75.2059 26.9708C75.584 26.7269 75.9158 26.4017 76.1919 26.0008C76.4699 25.6036 76.6942 25.1287 76.8721 24.5819L76.9351 24.3916C76.9351 24.3916 76.9685 24.3066 76.8666 24.3066H74.4794C74.3552 24.3066 74.3422 24.3786 74.3422 24.3786L74.32 24.4562C74.2903 24.5634 74.2329 24.6668 74.1383 24.7777C74.0457 24.8886 73.9178 25.0031 73.7528 25.1158C73.434 25.332 73.0578 25.4428 72.5981 25.4428C72.2738 25.4428 71.9939 25.4022 71.7567 25.3209C71.5176 25.2433 71.3249 25.1269 71.1655 24.9735C71.0079 24.8202 70.8837 24.6225 70.7911 24.3602C70.7169 24.1532 70.6687 23.9057 70.6428 23.6211H76.9277C77.0278 23.6211 77.0315 23.5066 77.0315 23.5066L77.0371 23.4234C77.0482 23.2682 77.0519 23.1112 77.0519 22.9579C77.0519 22.4165 76.987 21.8955 76.8591 21.3911M71.019 20.8036C71.1506 20.6355 71.3323 20.4932 71.5676 20.3713C71.7864 20.2567 72.0755 20.1976 72.4443 20.1976C72.7223 20.1976 72.9596 20.2345 73.1523 20.3047C73.3469 20.3768 73.497 20.4747 73.6194 20.6077C73.8362 20.8461 74.0086 21.1953 74.1235 21.6572H70.6558C70.6724 21.5611 70.6984 21.4576 70.7299 21.3468C70.7855 21.1583 70.88 20.9773 71.019 20.8036Z" fill="#030402"/>
<path d="M85.9575 27.3809L82.5825 22.5366L85.6313 18.2115C85.6313 18.2115 85.6721 18.1579 85.5628 18.1579H82.4805C82.3823 18.1579 82.3564 18.2133 82.3564 18.2133L80.9719 20.2826L79.5781 18.2244C79.5781 18.2244 79.5299 18.1579 79.4317 18.1579H76.2623C76.1715 18.1579 76.2197 18.2188 76.2197 18.2188L79.2612 22.5883L75.9677 27.3902C75.9677 27.3902 75.9065 27.4807 76.0158 27.4807H79.1073C79.2334 27.4807 79.2815 27.3754 79.2815 27.3754L80.9422 24.8793L82.601 27.3735C82.601 27.3735 82.6659 27.4807 82.7752 27.4807H85.9112C86.0298 27.4807 85.9594 27.3791 85.9594 27.3791" fill="#030402"/>
<path d="M89.859 18.156H86.2986C86.1744 18.156 86.1929 18.241 86.1929 18.241L86.7045 27.368C86.7045 27.368 86.7137 27.4825 86.8101 27.4825H89.3289C89.4345 27.4825 89.4345 27.3661 89.4345 27.3661L89.9479 18.2576C89.9479 18.2576 89.9498 18.156 89.8571 18.156" fill="#030402"/>
<path d="M96.6332 20.2512C96.6332 20.2512 96.7296 20.2456 96.7296 20.1385V18.2503C96.7296 18.2503 96.7351 18.1579 96.6295 18.1579H94.9429V15.6027C94.9429 15.6027 94.9484 15.4974 94.8409 15.4974H92.1313C92.0238 15.4974 92.033 15.6008 92.033 15.6008V18.1579H90.6652C90.541 18.1579 90.5559 18.2392 90.5559 18.2392V20.1459C90.5559 20.1459 90.5447 20.2512 90.6485 20.2512H92.0349V25.2414C92.0349 25.7107 92.1127 26.1098 92.2869 26.4294C92.4537 26.7398 92.691 26.9855 92.9857 27.1555C93.273 27.3218 93.5992 27.4308 93.9606 27.4844C94.3127 27.538 94.6834 27.5638 95.0708 27.5638C95.3136 27.5638 95.5619 27.5601 95.8195 27.5472C96.079 27.5361 96.3163 27.5139 96.5331 27.4788L96.6387 27.4604C96.6387 27.4604 96.7314 27.4585 96.7314 27.3403V25.1638C96.7314 25.0493 96.635 25.0881 96.635 25.0881L96.4497 25.1232C96.3441 25.1435 96.2329 25.1602 96.1142 25.1712C95.9956 25.1842 95.8714 25.1879 95.7398 25.1879C95.5471 25.1879 95.3914 25.1694 95.2821 25.1435C95.1727 25.114 95.1078 25.077 95.0819 25.0511C95.0541 25.0234 95.017 24.9625 94.9911 24.8498C94.9614 24.7408 94.9466 24.5874 94.9466 24.3934V20.2456H96.6369L96.6332 20.2512Z" fill="#030402"/>
<path d="M106.221 20.8221C105.993 20.2161 105.667 19.695 105.24 19.2664C104.816 18.8359 104.303 18.5034 103.708 18.2687C103.111 18.0341 102.447 17.9177 101.723 17.9177C100.998 17.9177 100.336 18.0322 99.7432 18.2687C99.1538 18.5034 98.6441 18.8359 98.2197 19.2664C97.7934 19.695 97.4672 20.2142 97.2393 20.8221C97.0113 21.4262 96.8982 22.1006 96.8982 22.8304C96.8982 23.5602 97.0113 24.2345 97.2393 24.8331C97.4672 25.4336 97.7953 25.9509 98.2197 26.3795C98.646 26.81 99.1538 27.1426 99.7451 27.368C100.336 27.5989 101 27.7098 101.723 27.7098C102.445 27.7098 103.107 27.5989 103.706 27.368C104.301 27.1426 104.816 26.81 105.24 26.3795C105.667 25.9509 105.993 25.4336 106.221 24.8331C106.449 24.2345 106.564 23.5639 106.564 22.8304C106.564 22.0969 106.449 21.4262 106.221 20.8221ZM102.646 25.21C102.407 25.3449 102.103 25.4188 101.723 25.4188C101.343 25.4188 101.039 25.3449 100.807 25.2119C100.564 25.0696 100.375 24.8849 100.227 24.6484C100.077 24.4045 99.9712 24.1311 99.9063 23.8188C99.8396 23.4955 99.8062 23.1685 99.8062 22.8285C99.8062 22.4886 99.8396 22.1579 99.9063 21.829C99.9712 21.5112 100.077 21.2378 100.227 21.0013C100.375 20.7703 100.568 20.5856 100.813 20.4341C101.041 20.2974 101.341 20.2198 101.723 20.2198C102.104 20.2198 102.407 20.2955 102.642 20.4341C102.894 20.5856 103.087 20.7703 103.231 20.9994C103.381 21.2359 103.491 21.5112 103.552 21.8271C103.619 22.156 103.652 22.4886 103.652 22.8267C103.652 23.1648 103.619 23.4936 103.552 23.817C103.489 24.1292 103.381 24.4045 103.231 24.6465C103.085 24.883 102.894 25.0678 102.646 25.21Z" fill="#030402"/>
<path d="M89.8145 29.7052C89.8145 28.7426 89.0323 27.9648 88.0704 27.9648C87.1085 27.9648 86.3264 28.7426 86.3264 29.7052C86.3264 30.6677 87.1085 31.4419 88.0704 31.4419C89.0323 31.4419 89.8145 30.664 89.8145 29.7052Z" fill="#A62A22"/>
<path d="M72.865 15.5657L71.4954 17.2747C71.4954 17.2747 71.4138 17.3727 71.5213 17.3727H73.1375C73.2691 17.3727 73.3414 17.3043 73.3414 17.3043L75.6359 15.5639C75.6359 15.5639 75.7174 15.4937 75.6118 15.4937H73.0318C72.9077 15.4937 72.8669 15.5639 72.8669 15.5639" fill="#030402"/>
<path d="M108.836 19.0687C108.836 19.2738 108.784 19.4641 108.684 19.6359C108.582 19.8151 108.443 19.9537 108.265 20.0535C108.089 20.1569 107.896 20.2068 107.694 20.2068C107.492 20.2068 107.3 20.1569 107.123 20.0535C106.946 19.9537 106.808 19.8151 106.706 19.6359C106.606 19.4641 106.553 19.2738 106.553 19.0687C106.553 18.8636 106.606 18.677 106.706 18.4978C106.808 18.3205 106.946 18.1819 107.123 18.0821C107.3 17.9805 107.489 17.9288 107.694 17.9288C107.9 17.9288 108.089 17.9787 108.265 18.0821C108.443 18.1819 108.582 18.3205 108.684 18.4978C108.784 18.677 108.836 18.8673 108.836 19.0687ZM108.617 19.0687C108.617 18.8138 108.528 18.5957 108.347 18.4147C108.167 18.2373 107.948 18.1468 107.692 18.1468C107.437 18.1468 107.22 18.2373 107.04 18.4147C106.862 18.5939 106.771 18.8119 106.771 19.0687C106.771 19.3255 106.862 19.5417 107.04 19.7191C107.222 19.8964 107.439 19.987 107.692 19.987C107.946 19.987 108.165 19.8983 108.347 19.7191C108.527 19.5417 108.617 19.3218 108.617 19.0687ZM107.174 18.4572H107.722C107.878 18.4572 107.989 18.4886 108.058 18.5533C108.128 18.6142 108.163 18.6974 108.163 18.8045C108.163 18.8821 108.137 18.9542 108.084 19.0151C108.03 19.0743 107.95 19.1205 107.833 19.1445C107.88 19.1648 107.915 19.1814 107.937 19.1999C107.969 19.2313 108 19.272 108.035 19.3274C108.035 19.3311 108.104 19.4475 108.232 19.6784H107.874C107.756 19.4475 107.676 19.3071 107.637 19.2627C107.598 19.2184 107.557 19.1944 107.518 19.1944C107.518 19.1944 107.496 19.1999 107.483 19.1999V19.6784H107.175V18.4572H107.174ZM107.481 18.9782H107.611C107.698 18.9782 107.761 18.9653 107.798 18.9357C107.833 18.9061 107.852 18.871 107.852 18.8248C107.852 18.7787 107.835 18.7454 107.8 18.7177C107.765 18.6881 107.707 18.6733 107.628 18.6733H107.483V18.98L107.481 18.9782Z" fill="#030402"/>
</g>
</g>
</svg>
